<svg width="195" height="35" viewBox="0 0 195 35" fill="none" xmlns="http://www.w3.org/2000/svg">
<line x1="8.65685" y1="8" x2="28" y2="27.3431" stroke="#FDFDFD" stroke-width="8" stroke-linecap="round"/>
<line x1="8.65685" y1="8" x2="28" y2="27.3431" stroke="#FDFDFD" stroke-width="8" stroke-linecap="round"/>
<line x1="8" y1="8" x2="8" y2="22" stroke="#FDFDFD" stroke-width="8" stroke-linecap="round"/>
<circle cx="7.5" cy="27.5" r="7.5" fill="#1A122B"/>
<line x1="29" y1="10" x2="29" y2="27" stroke="#FDFDFD" stroke-width="8" stroke-linecap="round"/>
<circle cx="28.5" cy="7.5" r="7.5" fill="#1A122B"/>
<circle cx="7.5" cy="27.5" r="5.5" fill="#FDFDFD"/>
<circle cx="28.5" cy="7.5" r="5.5" fill="#FDFDFD"/>
<path d="M55.4536 9.87629H57.9897V25H55.2371L46.6701 13.9588V25H44.1031V9.87629H46.6701L55.4536 21.1649V9.87629ZM65.207 23.0206C66.2586 23.0206 67.1245 22.6701 67.805 21.9691C68.506 21.268 68.8565 20.3608 68.8565 19.2474C68.8565 18.134 68.506 17.2268 67.805 16.5258C67.1245 15.8247 66.2586 15.4742 65.207 15.4742C64.1555 15.4742 63.2895 15.8247 62.6091 16.5258C61.9287 17.2268 61.5885 18.134 61.5885 19.2474C61.5885 20.3608 61.9287 21.2577 62.6091 21.9381C63.2895 22.6598 64.1555 23.0206 65.207 23.0206ZM65.207 25.1856C63.4751 25.1856 62.0318 24.6186 60.8771 23.4845C59.7225 22.3299 59.1452 20.9175 59.1452 19.2474C59.1452 17.5773 59.7225 16.1753 60.8771 15.0412C62.0318 13.8866 63.4751 13.3093 65.207 13.3093C66.939 13.3093 68.3823 13.8866 69.5369 15.0412C70.6916 16.1753 71.2689 17.5773 71.2689 19.2474C71.2689 20.8557 70.6916 22.2577 69.5369 23.4536C68.3823 24.6082 66.939 25.1856 65.207 25.1856ZM74.4725 20.0515V25H72.0602V13.4948H74.4725V15.7835C74.8643 15.0619 75.39 14.4742 76.0498 14.0206C76.7303 13.567 77.4416 13.3299 78.1839 13.3093L78.2148 15.7526H78.0911C76.9158 15.7526 76.0189 16.134 75.4004 16.8969C74.7818 17.6598 74.4725 18.7113 74.4725 20.0515ZM81.6632 15.4433V21.2887C81.6632 21.8454 81.8075 22.2887 82.0962 22.6186C82.4055 22.9278 82.8178 23.0825 83.3333 23.0825C83.8075 23.0825 84.3024 22.8247 84.8178 22.3093L85.8075 24.0412C84.9416 24.8041 84.0034 25.1856 82.9931 25.1856C81.9416 25.1856 81.055 24.8247 80.3333 24.1031C79.6117 23.3608 79.2508 22.4021 79.2508 21.2268V15.4433H77.7972V13.4948H79.2508V9.87629H81.6632V13.4948H84.6941V15.4433H81.6632ZM88.2092 25H85.7969V8.94845H88.2092V15.567C88.5598 14.866 89.0855 14.3196 89.7866 13.9278C90.4876 13.5155 91.2402 13.3093 92.0443 13.3093C93.3845 13.3093 94.4464 13.7113 95.2299 14.5155C96.0134 15.3196 96.4051 16.4639 96.4051 17.9485V25H93.9618V18.6907C93.9618 16.567 93.0855 15.5052 91.333 15.5052C90.4464 15.5052 89.7041 15.7938 89.1062 16.3711C88.5082 16.9278 88.2092 17.7216 88.2092 18.7526V25ZM97.0792 19.1856C97.0792 17.4536 97.6256 16.0412 98.7184 14.9485C99.8112 13.8557 101.151 13.3093 102.739 13.3093C104.265 13.3093 105.492 13.9588 106.419 15.2577V8.94845H108.863V25H106.419V23.268C105.553 24.5464 104.254 25.1856 102.523 25.1856C101.017 25.1856 99.7287 24.6289 98.6565 23.5155C97.605 22.3814 97.0792 20.9381 97.0792 19.1856ZM103.048 23.0206C104.017 23.0206 104.832 22.6701 105.492 21.9691C106.151 21.268 106.481 20.3711 106.481 19.2784C106.481 18.2062 106.141 17.299 105.461 16.5567C104.801 15.8144 103.986 15.4433 103.017 15.4433C102.048 15.4433 101.213 15.8144 100.512 16.5567C99.8318 17.2784 99.4916 18.1856 99.4916 19.2784C99.4916 20.3711 99.8421 21.268 100.543 21.9691C101.244 22.6701 102.079 23.0206 103.048 23.0206ZM119.712 25H117.516V23.4536C116.547 24.6082 115.269 25.1856 113.681 25.1856C112.465 25.1856 111.465 24.8454 110.681 24.1649C109.918 23.4639 109.537 22.5567 109.537 21.4433C109.537 20.3299 109.949 19.4845 110.774 18.9072C111.599 18.3299 112.733 18.0412 114.176 18.0412H117.331V17.6082C117.331 16.0825 116.475 15.3196 114.764 15.3196C113.691 15.3196 112.578 15.7113 111.423 16.4948L110.341 14.9794C111.764 13.866 113.351 13.3093 115.104 13.3093C116.526 13.3093 117.65 13.6701 118.475 14.3918C119.3 15.0928 119.712 16.1546 119.712 17.5773V25ZM117.3 19.7423H114.578C112.825 19.7423 111.949 20.2887 111.949 21.3814C111.949 21.9381 112.166 22.3711 112.599 22.6804C113.032 22.9691 113.64 23.1134 114.423 23.1134C115.227 23.1134 115.908 22.8969 116.465 22.4639C117.021 22.0103 117.3 21.4227 117.3 20.701V19.7423ZM123.58 25H121.168V8.94845H123.58V25ZM135.866 20.299H126.835C126.897 21.1237 127.278 21.7938 127.979 22.3093C128.68 22.8247 129.495 23.0825 130.423 23.0825C131.886 23.0825 132.979 22.6289 133.701 21.7216L135.093 23.2371C133.856 24.5361 132.237 25.1856 130.237 25.1856C128.588 25.1856 127.206 24.6392 126.093 23.5464C124.979 22.4536 124.423 21.0103 124.423 19.2165C124.423 17.4639 124.99 16.0412 126.124 14.9485C127.258 13.8557 128.629 13.3093 130.237 13.3093C131.845 13.3093 133.185 13.7938 134.258 14.7629C135.33 15.732 135.866 17.0206 135.866 18.6289V20.299ZM133.454 18.3814C133.454 17.4536 133.155 16.7216 132.557 16.1856C131.979 15.6495 131.227 15.3814 130.299 15.3814C129.371 15.3814 128.557 15.6598 127.856 16.2165C127.175 16.7732 126.835 17.4948 126.835 18.3814H133.454Z" fill="#FDFDFD"/>
<path d="M140.941 25V9.87629H143.508V22.5876H150.405V25H140.941ZM156.186 23.0206C157.237 23.0206 158.103 22.6701 158.783 21.9691C159.485 21.268 159.835 20.3608 159.835 19.2474C159.835 18.134 159.485 17.2268 158.783 16.5258C158.103 15.8247 157.237 15.4742 156.186 15.4742C155.134 15.4742 154.268 15.8247 153.588 16.5258C152.907 17.2268 152.567 18.134 152.567 19.2474C152.567 20.3608 152.907 21.2577 153.588 21.9381C154.268 22.6598 155.134 23.0206 156.186 23.0206ZM156.186 25.1856C154.454 25.1856 153.01 24.6186 151.856 23.4845C150.701 22.3299 150.124 20.9175 150.124 19.2474C150.124 17.5773 150.701 16.1753 151.856 15.0412C153.01 13.8866 154.454 13.3093 156.186 13.3093C157.917 13.3093 159.361 13.8866 160.515 15.0412C161.67 16.1753 162.247 17.5773 162.247 19.2474C162.247 20.8557 161.67 22.2577 160.515 23.4536C159.361 24.6082 157.917 25.1856 156.186 25.1856ZM172.348 25H170.152V23.4536C169.183 24.6082 167.905 25.1856 166.317 25.1856C165.101 25.1856 164.101 24.8454 163.317 24.1649C162.554 23.4639 162.173 22.5567 162.173 21.4433C162.173 20.3299 162.585 19.4845 163.41 18.9072C164.235 18.3299 165.369 18.0412 166.812 18.0412H169.967V17.6082C169.967 16.0825 169.111 15.3196 167.399 15.3196C166.327 15.3196 165.214 15.7113 164.059 16.4948L162.977 14.9794C164.399 13.866 165.987 13.3093 167.74 13.3093C169.162 13.3093 170.286 13.6701 171.111 14.3918C171.936 15.0928 172.348 16.1546 172.348 17.5773V25ZM169.936 19.7423H167.214C165.461 19.7423 164.585 20.2887 164.585 21.3814C164.585 21.9381 164.802 22.3711 165.235 22.6804C165.668 22.9691 166.276 23.1134 167.059 23.1134C167.863 23.1134 168.544 22.8969 169.101 22.4639C169.657 22.0103 169.936 21.4227 169.936 20.701V19.7423ZM176.216 25H173.804V13.4948H176.216V15.567C176.608 14.866 177.144 14.3196 177.824 13.9278C178.525 13.5155 179.267 13.3093 180.051 13.3093C181.391 13.3093 182.453 13.7113 183.236 14.5155C184.02 15.3196 184.412 16.4639 184.412 17.9485V25H181.968V18.6907C181.968 16.567 181.092 15.5052 179.34 15.5052C178.453 15.5052 177.711 15.7938 177.113 16.3711C176.515 16.9278 176.216 17.7216 176.216 18.7526V25ZM189.787 25.1856C187.931 25.1856 186.261 24.6082 184.777 23.4536L185.952 21.567C187.271 22.5773 188.57 23.0825 189.849 23.0825C190.385 23.0825 190.807 22.9588 191.117 22.7113C191.447 22.4433 191.612 22.1134 191.612 21.7216C191.612 21.1443 190.849 20.6289 189.323 20.1753C189.282 20.1546 189.23 20.134 189.168 20.1134C189.127 20.0928 189.096 20.0825 189.076 20.0825C186.684 19.4433 185.488 18.3608 185.488 16.8351C185.488 15.7629 185.89 14.9072 186.694 14.268C187.519 13.6289 188.601 13.3093 189.942 13.3093C191.261 13.3093 192.519 13.701 193.715 14.4845L192.818 16.2784C191.89 15.6598 190.869 15.3505 189.756 15.3505C188.457 15.3505 187.807 15.7629 187.807 16.5876C187.807 16.9381 187.931 17.1959 188.179 17.3608C188.447 17.5052 188.88 17.6495 189.478 17.7938C190.385 18.0412 191.148 18.2887 191.766 18.5361C192.179 18.7216 192.539 18.9175 192.849 19.1237C193.632 19.6598 194.024 20.4742 194.024 21.567C194.024 22.6392 193.622 23.5155 192.818 24.1959C192.034 24.8557 191.024 25.1856 189.787 25.1856Z" fill="#FDFDFD" fill-opacity="0.8"/>
</svg>
